<?xml version="1.0" encoding="UTF-8" standalone="no"?>
<!-- Created with Inkscape (http://www.inkscape.org/) -->

<svg
   xmlns:dc="http://purl.org/dc/elements/1.1/"
   xmlns:cc="http://creativecommons.org/ns#"
   xmlns:rdf="http://www.w3.org/1999/02/22-rdf-syntax-ns#"
   xmlns:svg="http://www.w3.org/2000/svg"
   xmlns="http://www.w3.org/2000/svg"
   xmlns:xlink="http://www.w3.org/1999/xlink"
   xmlns:sodipodi="http://sodipodi.sourceforge.net/DTD/sodipodi-0.dtd"
   xmlns:inkscape="http://www.inkscape.org/namespaces/inkscape"
   id="svg1119"
   width="1000"
   height="300"
   version="1.1"
   viewBox="0 0 264.64844 79.453127"
   sodipodi:docname="bg.svg"
   inkscape:version="0.92.5 (2060ec1f9f, 2020-04-08)">
  <sodipodi:namedview
     pagecolor="#ffffff"
     bordercolor="#666666"
     borderopacity="1"
     objecttolerance="10"
     gridtolerance="10"
     guidetolerance="10"
     inkscape:pageopacity="0"
     inkscape:pageshadow="2"
     inkscape:window-width="1920"
     inkscape:window-height="1059"
     id="namedview943"
     showgrid="false"
     inkscape:zoom="1.3125"
     inkscape:cx="512"
     inkscape:cy="128"
     inkscape:window-x="0"
     inkscape:window-y="0"
     inkscape:window-maximized="1"
     inkscape:current-layer="svg1119" />
  <defs
     id="defs1059">
    <path
       id="g1-112-4"
       d="M 3.634,7.57 2.054,3.99 C 2.01748,3.91695 1.99921,3.8622 1.9353,3.8622 1.90791,3.8622 1.89878,3.87133 1.8075,3.93525 L 0.8852,4.59275 1.013,4.76625 C 1.1591,4.72973 1.3052,4.6932 1.3965,4.6932 c 0.01826,0 0.0274,0 0.0274,0.00913 l 1.799,4.063 h 0.2648 c 0,0 4.246,-8.784 4.273,-8.794 0.04566,-0.1004 0.02739,-0.1096 0.02739,-0.1552 0,-0.1004 -0.02739,-0.347 -0.137,-0.347 H 7.56891 l -3.936,8.1 z"
       inkscape:connector-curvature="0" />
    <path
       id="g1-126-7"
       d="m 3.552,0.3013 c 0.137,0 0.1735,-0.07305 0.2283,-0.1826 0.274,-0.6392 0.3196,-0.8401 0.8401,-1.342 0.9405,-0.904 1.972,-1.781 1.972,-3.196 0,-1.014 -0.3652,-2.118 -1.561,-2.118 -0.6575,0 -1.169,0.4018 -1.479,0.9588 -0.3105,-0.557 -0.8218,-0.9588 -1.479,-0.9588 -1.196,0 -1.561,1.105 -1.561,2.118 0,1.233 0.831,2.128 1.68,2.922 0.4383,0.4109 0.694,0.6483 0.9588,1.205 0.07305,0.1552 0.1278,0.3105 0.1918,0.4566 0.04565,0.08218 0.1187,0.137 0.21,0.137 z m 1.479,-6.383 c 0.9131,0 1.105,0.9314 1.105,1.662 0,1.214 -0.9771,2.036 -1.781,2.803 -0.3835,0.3653 -0.557,0.6483 -0.8036,1.105 -0.2192,-0.4018 -0.4018,-0.7031 -0.7396,-1.032 -0.8218,-0.7762 -1.845,-1.635 -1.845,-2.876 0,-0.7305 0.1918,-1.662 1.105,-1.662 0.7031,0 1.096,0.5661 1.242,1.187 0.03653,0.137 0.04566,0.2922 0.2374,0.2922 0.1826,0 0.2009,-0.1461 0.2374,-0.2831 0.1461,-0.6209 0.5388,-1.196 1.242,-1.196 z"
       inkscape:connector-curvature="0" />
    <path
       id="g1-161-4"
       d="M 5.798,-2.31 V -2.8396 H 0.776 V -2.31 Z"
       inkscape:connector-curvature="0" />
    <use
       id="g10-50-4"
       transform="scale(0.76)"
       xlink:href="#g7-50-6"
       x="0"
       y="0"
       width="100%"
       height="100%" />
    <path
       id="g5-188-3"
       d="m 4.94,-0.6118 c -0.09131,0 -0.1278,-0.02739 -0.1278,-0.1278 0,-0.137 0.07305,-0.4109 0.1918,-0.9497 l 0.4474,-2.018 h 1.004 l 0.4109,-0.9131 c -0.2922,0.06392 -0.7488,0.1096 -1.224,0.1096 h -3.251 c -0.5296,0 -1.178,0.3835 -1.561,0.9405 l 0.21,0.1918 c 0.3926,-0.2374 0.831,-0.3287 1.434,-0.3287 -0.3287,1.498 -0.6849,2.392 -1.251,2.621 -0.4018,0.1552 -0.904,0.2648 -0.904,0.7853 0,0.3835 0.3379,0.4109 0.5296,0.4109 0.7305,0 1.224,-0.7944 1.452,-1.333 0.2922,-0.7031 0.4657,-1.178 0.7488,-2.484 h 1.023 l -0.5662,2.584 c -0.05479,0.2465 -0.09131,0.4657 -0.09131,0.6392 0,0.3927 0.1918,0.6027 0.8675,0.6027 0.6392,0 1.196,-0.1644 1.726,-1.269 l -0.3013,-0.1278 c -0.2466,0.4109 -0.557,0.6666 -0.767,0.6666 z"
       inkscape:connector-curvature="0" />
    <path
       id="g8-69-07"
       d="m 1.735,-6.319 -0.1004,0.347 0.4657,0.04566 c 0.2557,0.01826 0.2466,0.1735 0.1735,0.5022 l -1.014,4.529 c -0.07305,0.3287 -0.137,0.4931 -0.4018,0.5114 l -0.4109,0.03652 -0.08218,0.347 h 5.022 l 0.5388,-1.899 h -0.347 l -0.2922,0.4931 c -0.4657,0.7944 -0.904,0.9862 -1.625,0.9862 -0.831,0 -1.105,-0.01826 -0.9862,-0.5205 l 0.484,-2.155 h 0.8584 c 0.5844,0 0.6848,0.2557 0.6575,0.8218 h 0.347 l 0.4566,-2.082 h -0.347 c -0.2922,0.6666 -0.4383,0.8218 -1.014,0.8218 h -0.8584 l 0.4566,-2.064 c 0.06392,-0.2648 0.1278,-0.3013 0.4474,-0.3013 h 0.6301 c 0.8036,0 1.004,0.3379 1.041,0.767 l 0.04565,0.5022 h 0.347 l 0.3652,-1.689 h -4.858 z"
       inkscape:connector-curvature="0" />
    <path
       id="g8-73-8"
       d="m 1.726,-6.319 -0.09131,0.347 0.4657,0.04566 c 0.2557,0.01826 0.2466,0.1735 0.1735,0.5022 l -1.014,4.529 c -0.07305,0.3287 -0.137,0.4931 -0.4018,0.5114 l -0.4109,0.03652 -0.08218,0.347 h 2.849 l 0.08218,-0.347 -0.4566,-0.03652 c -0.2557,-0.02739 -0.2466,-0.1826 -0.1735,-0.5114 l 1.014,-4.529 c 0.07305,-0.3287 0.137,-0.4931 0.4018,-0.5114 l 0.4018,-0.03653 0.09131,-0.347 H 1.726 Z"
       inkscape:connector-curvature="0" />
    <path
       id="g8-80-6"
       d="m 1.735,-6.319 -0.09131,0.347 0.4657,0.04566 c 0.2557,0.01826 0.2466,0.1735 0.1735,0.5022 l -1.023,4.529 c -0.07305,0.3287 -0.137,0.4931 -0.4018,0.5114 l -0.4109,0.03652 -0.08218,0.347 h 3.013 l 0.07305,-0.347 -0.5935,-0.04566 c -0.2739,-0.01826 -0.2648,-0.1918 -0.1918,-0.5022 l 0.347,-1.516 h 0.5753 c 0.7944,0 1.708,-0.137 2.274,-0.557 0.484,-0.3561 0.7944,-0.9314 0.7944,-1.598 0,-0.694 -0.3105,-1.151 -0.7488,-1.406 -0.4657,-0.2739 -1.096,-0.347 -1.872,-0.347 h -2.301 z m 1.982,0.767 c 0.06392,-0.2648 0.1187,-0.347 0.5205,-0.347 0.6301,0 0.9679,0.3561 0.9679,1.05 0,0.9314 -0.5388,2.018 -1.635,2.018 -0.4292,0 -0.4383,-0.1187 -0.3926,-0.3013 l 0.5388,-2.42 z"
       inkscape:connector-curvature="0" />
    <path
       id="g8-82-88"
       d="m 1.726,-6.319 -0.09131,0.347 0.4657,0.04566 c 0.2557,0.01826 0.2466,0.1735 0.1735,0.5022 l -1.014,4.529 c -0.07305,0.3287 -0.137,0.4931 -0.4018,0.5114 l -0.4109,0.03652 -0.08218,0.347 h 2.849 l 0.08218,-0.347 -0.4566,-0.03652 c -0.2557,-0.02739 -0.2466,-0.1826 -0.1735,-0.5114 l 0.4474,-2 h 0.5296 c 0.4474,0 0.5844,0.137 0.6575,0.484 0.06392,0.3196 -0.07305,1.032 0.03653,1.653 0.1004,0.5114 0.4931,0.7579 1.105,0.7579 h 0.8766 l 0.08218,-0.347 c -0.2374,-0.02739 -0.4566,-0.09131 -0.557,-0.2557 -0.1278,-0.2192 -0.2009,-0.5114 -0.1735,-0.9862 0.0274,-0.7305 0,-1.306 -0.9314,-1.525 v -0.01827 c 1.141,-0.07305 1.936,-0.7305 1.936,-1.68 0,-0.5479 -0.2283,-0.9405 -0.6392,-1.187 -0.3744,-0.2192 -1.014,-0.3196 -1.735,-0.3196 h -2.575 z m 1.479,3.004 0.5114,-2.255 c 0.05479,-0.2283 0.1187,-0.3287 0.557,-0.3287 0.6118,0 0.9497,0.3013 0.9497,0.9405 0,1.05 -0.7214,1.644 -1.443,1.644 H 3.2048 Z"
       inkscape:connector-curvature="0" />
    <path
       id="g8-86-4"
       d="m 3.461,0 1.68,-3.041 c 0.5388,-0.9679 1.041,-1.872 1.406,-2.42 0.1826,-0.2739 0.3105,-0.4474 0.5205,-0.4748 l 0.3379,-0.03653 0.06392,-0.347 h -2.137 l -0.07305,0.347 0.5114,0.03653 c 0.1735,0.01826 0.2009,0.1278 0.1187,0.3105 -0.2465,0.5388 -0.6757,1.361 -1.187,2.328 -0.2557,0.4748 -0.831,1.561 -1.123,2.055 H 3.56111 l -0.2374,-2.201 c -0.01826,-0.2009 -0.2009,-2.009 -0.2192,-2.192 -0.01826,-0.1461 0,-0.2648 0.1735,-0.2831 l 0.5479,-0.05479 0.06392,-0.347 h -2.666 l -0.06392,0.347 0.3105,0.03653 c 0.1735,0.02739 0.2374,0.1461 0.2739,0.42 0.07306,0.5935 0.2009,1.516 0.3196,2.685 l 0.3013,2.831 h 1.096 z"
       inkscape:connector-curvature="0" />
    <path
       id="g8-99-3"
       d="m 4.091,-1.644 c -0.347,0.557 -0.7762,1.151 -1.379,1.151 -0.484,0 -0.6483,-0.4292 -0.6483,-0.9862 0,-1.242 0.6575,-2.685 1.233,-2.685 0.1826,0 0.2831,0.1278 0.4018,0.6118 0.05479,0.2283 0.1278,0.4292 0.3744,0.4292 0.3196,0 0.7944,-0.2466 0.7944,-0.5753 0,-0.5205 -0.5205,-0.8858 -1.361,-0.8858 -1.872,0 -2.84,1.753 -2.84,3.169 0,1.105 0.6666,1.525 1.47,1.525 0.6849,0 1.571,-0.2557 2.228,-1.561 L 4.0904,-1.6431 Z"
       inkscape:connector-curvature="0" />
    <path
       id="g8-102-1"
       d="M 1.771,-4.036 0.648,1.543 C 0.61148,1.7074 0.5476,1.7896 0.4745,1.7896 c -0.09131,0 -0.21,-0.1278 -0.4292,-0.5114 -0.08218,-0.137 -0.1552,-0.2831 -0.3561,-0.2831 -0.2922,0 -0.5479,0.2557 -0.5479,0.5387 0,0.3835 0.3926,0.6757 1.096,0.6757 1.105,-0.0274 1.616,-0.831 2,-2.465 l 0.8857,-3.78 h 1.141 l 0.1096,-0.4383 h -1.169 l 0.3196,-1.333 c 0.09131,-0.3835 0.1826,-0.5479 0.3287,-0.5479 0.137,0 0.2557,0.1278 0.5022,0.6575 0.07305,0.1461 0.1644,0.274 0.3835,0.274 0.2831,0 0.6301,-0.2192 0.6301,-0.5479 0,-0.42 -0.5114,-0.7944 -1.306,-0.8036 -0.6483,-0.00913 -1.114,0.2466 -1.443,0.6209 -0.3561,0.4109 -0.5479,0.9405 -0.6849,1.443 l -0.06392,0.2374 h -0.7853 l -0.1278,0.4383 h 0.8127 z"
       inkscape:connector-curvature="0" />
    <path
       id="g8-109-4"
       d="m 2,0 c 0.2648,-0.9314 0.4292,-1.424 0.6301,-1.936 0.2739,-0.6849 1.096,-1.918 1.525,-1.918 0.2192,0 0.2648,0.1187 0.1826,0.4383 l -0.9588,3.525 1.26,-0.1096 c 0.2557,-0.9314 0.4292,-1.424 0.6392,-1.954 0.2831,-0.6848 1.096,-1.899 1.525,-1.899 0.2466,0 0.2557,0.2192 0.1644,0.5296 l -0.694,2.347 c -0.1918,0.7122 0.07305,1.087 0.6118,1.087 0.8949,0 1.443,-0.7031 1.808,-1.461 L 8.4467,-1.5151 c -0.2283,0.4109 -0.5753,0.8949 -0.7944,0.8949 -0.1735,0 -0.1735,-0.1918 -0.09131,-0.4292 l 0.6666,-2.21 c 0.2192,-0.7122 0.07305,-1.324 -0.6483,-1.324 -0.904,0 -1.717,0.9131 -2.283,2 l -0.04565,-0.00913 0.1918,-0.6575 c 0.2283,-0.7579 0.1644,-1.333 -0.557,-1.333 -0.8127,0 -1.671,0.9223 -2.237,2 H 2.60279 l 0.5844,-1.945 -0.04565,-0.05479 -2.082,0.2648 -0.06392,0.3013 0.5296,0.05479 c 0.1735,0.01826 0.2009,0.1461 0.137,0.3926 l -0.9223,3.68 1.26,-0.1096 z"
       inkscape:connector-curvature="0" />
    <path
       id="g8-110-9"
       d="m 2.018,0 c 0.2648,-0.9314 0.4474,-1.415 0.6575,-1.945 0.2739,-0.6848 1.096,-1.908 1.534,-1.908 0.2831,0 0.2648,0.2648 0.1826,0.5388 l -0.694,2.338 c -0.2009,0.7031 0.06392,1.087 0.6209,1.087 0.9131,0 1.461,-0.694 1.835,-1.461 L 5.8892,-1.5146 c -0.2192,0.4109 -0.5661,0.8949 -0.7853,0.8949 -0.1644,0 -0.1735,-0.1918 -0.1004,-0.4292 l 0.6848,-2.21 c 0.21,-0.7214 0.08219,-1.324 -0.6848,-1.324 -0.9405,0 -1.771,0.9679 -2.338,2.027 H 2.61072 l 0.6209,-1.982 -0.04566,-0.04566 -2.128,0.2648 -0.07305,0.3013 0.5479,0.05479 c 0.1735,0.01826 0.21,0.1461 0.137,0.3926 l -0.9405,3.68 1.288,-0.1096 z"
       inkscape:connector-curvature="0" />
    <path
       id="g8-114-2"
       d="m 2.064,0 c 0.1644,-0.5935 0.3287,-1.333 0.5022,-1.945 0.2831,-0.9953 0.5935,-1.635 0.8857,-1.635 0.1096,0 0.2283,0.06392 0.347,0.1461 0.1278,0.09131 0.2739,0.1735 0.4383,0.1735 0.3653,0 0.6209,-0.4292 0.6209,-0.7853 0,-0.3653 -0.2192,-0.5388 -0.5662,-0.5388 -0.557,0 -1.114,0.5388 -1.571,1.37 H 2.67525 l 0.3379,-1.324 -0.04566,-0.04566 -1.945,0.2648 -0.06392,0.3013 0.5388,0.05479 c 0.1735,0.01826 0.1918,0.1461 0.137,0.3926 l -0.8492,3.68 1.278,-0.1096 z"
       inkscape:connector-curvature="0" />
    <path
       id="g7-49-0"
       d="M 4.191,0 V -0.347 L 3.5701,-0.40179 C 3.3509,-0.42005 3.2505,-0.48397 3.2505,-0.77619 v -5.36 l -0.08218,-0.07305 -2.182,0.3561 v 0.2831 l 0.5662,0.1187 c 0.2374,0.04566 0.3196,0.1278 0.3196,0.4566 v 4.219 c 0,0.2922 -0.1004,0.3561 -0.3196,0.3744 l -0.6209,0.05479 v 0.347 h 3.26 z"
       inkscape:connector-curvature="0" />
    <path
       id="g7-50-6"
       d="M 4.557,0 4.9223,-1.598 4.6027,-1.64366 c -0.2648,0.4748 -0.3835,0.5388 -0.767,0.5388 h -2.328 c 0.1461,-0.3196 0.4474,-0.831 1.461,-1.37 1.059,-0.5661 1.662,-1.05 1.662,-2 0,-1.26 -0.8949,-1.735 -2.064,-1.735 -1.196,0 -2.128,0.5844 -2.128,1.379 0,0.3926 0.4657,0.5935 0.7762,0.5935 0.1918,0 0.347,-0.1004 0.4018,-0.347 0.1552,-0.7214 0.4383,-1.205 0.8857,-1.205 0.4657,0 0.6757,0.4474 0.6757,1.078 0,0.6027 -0.1461,1.288 -1.16,2.128 -1.278,1.05 -1.726,1.808 -1.744,2.42 l 0.1278,0.1644 h 4.155 z"
       inkscape:connector-curvature="0" />
    <use
       id="g13-49-8"
       xlink:href="#g7-49-0"
       x="0"
       y="0"
       width="100%"
       height="100%" />
    <use
       id="g13-50-9"
       xlink:href="#g7-50-6"
       x="0"
       y="0"
       width="100%"
       height="100%" />
  </defs>
  <metadata
     id="metadata1061">
    <rdf:RDF>
      <cc:Work
         rdf:about="">
        <dc:format>image/svg+xml</dc:format>
        <dc:type
           rdf:resource="http://purl.org/dc/dcmitype/StillImage" />
        <dc:title></dc:title>
      </cc:Work>
    </rdf:RDF>
  </metadata>
  <g
     id="g967"
     transform="translate(-3.7078125,-20.65781)">
    <use
       style="fill:#eeeeee"
       xlink:href="#g1-112-4"
       height="100%"
       width="100%"
       y="60.3055"
       x="177.83501"
       transform="matrix(2.574,0,0,2.574,-453.2,-101.48906)"
       id="use1448" />
    <path
       style="fill:#eeeeee"
       inkscape:connector-curvature="0"
       d="m 24.29,52.380938 h 30.19 v 1.358999 H 24.29 Z"
       id="rect1450" />
    <use
       style="fill:#eeeeee"
       xlink:href="#g1-161-4"
       height="100%"
       width="100%"
       y="68.636002"
       x="185.467"
       transform="matrix(2.574,0,0,2.574,-453.2,-101.48906)"
       id="use1452" />
    <use
       style="fill:#eeeeee"
       xlink:href="#g13-49-8"
       height="100%"
       width="100%"
       y="68.636002"
       x="192.037"
       transform="matrix(2.574,0,0,2.574,-453.2,-101.48906)"
       id="use1454" />
    <use
       style="fill:#eeeeee"
       xlink:href="#g1-126-7"
       height="100%"
       width="100%"
       y="68.636002"
       x="200.11501"
       transform="matrix(3.347,0,0,3.347,-599.6,-152.08906)"
       id="use1456" />
    <use
       style="fill:#eeeeee"
       xlink:href="#g8-69-07"
       height="100%"
       width="100%"
       y="61.8913"
       x="212.726"
       transform="matrix(2.574,0,0,2.574,-434.6,-101.48906)"
       id="use1458" />
    <path
       style="fill:#eeeeee"
       inkscape:connector-curvature="0"
       d="m 109.4,67.860937 h 24.37 v 1.368 H 109.4 Z"
       id="rect1460" />
    <use
       style="fill:#eeeeee"
       xlink:href="#g8-99-3"
       height="100%"
       width="100%"
       y="75.535301"
       x="211.339"
       transform="matrix(2.574,0,0,2.574,-434.6,-101.48906)"
       id="use1462" />
    <use
       style="fill:#eeeeee"
       xlink:href="#g10-50-4"
       height="100%"
       width="100%"
       y="72.656097"
       x="216.394"
       transform="matrix(2.574,0,0,2.574,-434.6,-101.48906)"
       id="use1464" />
    <use
       style="fill:#eeeeee"
       xlink:href="#g8-102-1"
       height="100%"
       width="100%"
       y="61.8913"
       x="226.34"
       transform="matrix(2.574,0,0,2.574,-434.6,-101.48906)"
       id="use1466" />
    <path
       style="fill:#eeeeee"
       inkscape:connector-curvature="0"
       d="m 142.5,67.860937 h 22.93 v 1.368 H 142.5 Z"
       id="rect1468" />
    <use
       style="fill:#eeeeee"
       xlink:href="#g8-109-4"
       height="100%"
       width="100%"
       y="75.470299"
       x="224.173"
       transform="matrix(2.574,0,0,2.574,-434.6,-101.48906)"
       id="use1470" />
    <use
       style="fill:#eeeeee"
       xlink:href="#g8-80-6"
       height="100%"
       width="100%"
       y="61.8913"
       x="236.44501"
       transform="matrix(2.574,0,0,2.574,-434.6,-101.48906)"
       id="use1472" />
    <use
       style="fill:#eeeeee"
       xlink:href="#g8-86-4"
       height="100%"
       width="100%"
       y="61.8913"
       x="243.27499"
       transform="matrix(2.574,0,0,2.574,-434.6,-101.48906)"
       id="use1474" />
    <path
       style="fill:#eeeeee"
       inkscape:connector-curvature="0"
       d="m 174.1,67.860937 h 37.42 v 1.368 H 174.1 Z"
       id="rect1476" />
    <use
       style="fill:#eeeeee"
       xlink:href="#g8-110-9"
       height="100%"
       width="100%"
       y="75.470299"
       x="236.993"
       transform="matrix(2.574,0,0,2.574,-434.6,-101.48906)"
       id="use1478" />
    <use
       style="fill:#eeeeee"
       xlink:href="#g8-82-88"
       height="100%"
       width="100%"
       y="75.470299"
       x="243.326"
       transform="matrix(2.574,0,0,2.574,-434.6,-101.48906)"
       id="use1480" />
    <use
       style="fill:#eeeeee"
       xlink:href="#g8-73-8"
       height="100%"
       width="100%"
       y="61.8913"
       x="261.095"
       transform="matrix(2.574,0,0,2.574,-434.6,-101.48906)"
       id="use1482" />
    <path
       style="fill:#eeeeee"
       inkscape:connector-curvature="0"
       d="m 220.1,67.860937 h 46.01 v 1.368 H 220.1 Z"
       id="rect1484" />
    <use
       style="fill:#eeeeee"
       xlink:href="#g13-50-9"
       height="100%"
       width="100%"
       y="75.470299"
       x="254.345"
       transform="matrix(2.574,0,0,2.574,-434.6,-101.48906)"
       id="use1486" />
    <use
       style="fill:#eeeeee"
       xlink:href="#g5-188-3"
       height="100%"
       width="100%"
       y="75.470299"
       x="259.457"
       transform="matrix(2.574,0,0,2.574,-434.6,-101.48906)"
       id="use1488" />
    <use
       style="fill:#eeeeee"
       xlink:href="#g8-114-2"
       height="100%"
       width="100%"
       y="75.470299"
       x="266.72198"
       transform="matrix(2.574,0,0,2.574,-434.6,-101.48906)"
       id="use1490" />
  </g>
</svg>
