<?xml version="1.0" encoding="UTF-8" standalone="no"?>
<svg
   xmlns:dc="http://purl.org/dc/elements/1.1/"
   xmlns:cc="http://creativecommons.org/ns#"
   xmlns:rdf="http://www.w3.org/1999/02/22-rdf-syntax-ns#"
   xmlns:svg="http://www.w3.org/2000/svg"
   xmlns="http://www.w3.org/2000/svg"
   id="svg40"
   viewBox="0 0 293 67.7"
   version="1.1"
   height="256"
   width="1106">
  <defs
     id="defs44" />
  <metadata
     id="metadata2">
    <rdf:RDF>
      <cc:Work
         rdf:about="">
        <dc:format>image/svg+xml</dc:format>
        <dc:type
           rdf:resource="http://purl.org/dc/dcmitype/StillImage" />
        <dc:title></dc:title>
      </cc:Work>
    </rdf:RDF>
  </metadata>
  <path
     style="fill:#ffffff;stroke-width:1.64999998"
     id="path6"
     d="m 13.552505,15.603125 v 43.395 h 43.395 v -18.645 l 6.204,-6.204 v 31.02 H 7.2165062 V 9.2341249 H 38.236505 l -6.204,6.2040001 z m 32.01,-0.93225 12.4245,12.4245 -25.74,25.74 h -12.4245 v -12.4245 z m 4.3395,-4.3395 7.1445,-7.1445004 12.4245,12.4245004 -7.1445,7.1445 z" />
  <g
     style="fill:#ffffff"
     transform="translate(-5.8282102)"
     id="g38">
    <path
       id="path8"
       style="font-variant-ligatures:normal;font-variant-caps:normal;font-variant-numeric:normal;font-feature-settings:normal"
       d="m 81,10 q 0,-0.96 0.652,-1.61 0.686,-0.686 1.65,-0.686 h 20 q 0.96,0 1.65,0.652 0.652,0.686 0.652,1.65 0,0.96 -0.686,1.65 -0.652,0.652 -1.61,0.652 h -7.65 v 13.9 q -0.206,2.06 -2.26,2.23 -0.96,0 -1.68,-0.617 -0.686,-0.652 -0.686,-1.61 v -13.9 h -7.68 q -0.96,0 -1.61,-0.686 -0.686,-0.652 -0.686,-1.61 z" />
    <path
       id="path10"
       style="font-variant-ligatures:normal;font-variant-caps:normal;font-variant-numeric:normal;font-feature-settings:normal"
       d="m 116,28 q -3.02,-0.103 -4.56,-1.41 -1.54,-1.34 -2.23,-2.98 -0.686,-1.68 -0.686,-3.4 0,-1.78 0.652,-3.43 0.686,-1.68 2.23,-2.98 1.58,-1.34 3.98,-1.37 h 13 q 0.96,0 1.61,0.652 0.686,0.617 0.686,1.51 0,0.926 -0.686,1.58 -0.652,0.617 -1.61,0.617 h -12.8 q -0.755,0 -1.34,0.514 -0.549,0.514 -0.823,1.34 -0.24,0.823 -0.24,1.61 0,0.857 0.24,1.68 0.274,0.823 0.823,1.34 0.583,0.48 1.34,0.514 h 12.8 q 0.96,0 1.61,0.617 0.686,0.617 0.686,1.47 0,0.892 -0.686,1.51 -0.652,0.617 -1.61,0.617 z m 14.3,-7.85 q 0,0.652 -0.583,1.13 -0.514,0.446 -1.3,0.446 h -11.2 q -0.789,0 -1.34,-0.446 -0.549,-0.48 -0.549,-1.13 0,-0.617 0.549,-1.1 0.549,-0.446 1.34,-0.446 h 11.2 q 0.789,0 1.34,0.48 0.549,0.446 0.549,1.06 z" />
    <path
       id="path12"
       style="font-variant-ligatures:normal;font-variant-caps:normal;font-variant-numeric:normal;font-feature-settings:normal"
       d="m 142,7 q 0.96,0 1.65,0.652 0.686,0.617 0.72,1.58 v 2.98 h 11.7 q 0.96,0 1.65,0.652 0.652,0.686 0.652,1.65 0,0.96 -0.686,1.65 -0.652,0.652 -1.61,0.652 h -11.7 v 0.686 q -0.034,1.41 0.171,2.61 0.24,1.17 1.1,2.09 0.857,0.926 2.16,0.995 h 8.37 q 0.96,0.0332 1.58,0.72 0.652,0.686 0.652,1.65 -0.034,0.926 -0.686,1.58 -0.617,0.617 -1.54,0.652 h -9.53 q -2.4,-0.137 -3.98,-1.61 -1.54,-1.51 -2.23,-3.67 -0.652,-2.16 -0.686,-4.6 v -1.1 h -3.94 q -0.96,0 -1.61,-0.686 -0.686,-0.652 -0.686,-1.61 0,-0.96 0.652,-1.61 0.686,-0.686 1.65,-0.686 h 3.94 v -2.98 q 0.034,-0.926 0.686,-1.54 0.652,-0.651 1.58,-0.686 z" />
    <path
       id="path14"
       style="font-variant-ligatures:normal;font-variant-caps:normal;font-variant-numeric:normal;font-feature-settings:normal"
       d="m 184,14 q 0,0.857 -0.686,1.44 -0.652,0.548 -1.61,0.548 h -14.5 q -0.446,0 -0.72,0.172 -0.274,0.172 -0.412,0.377 -0.137,0.172 -0.137,0.309 0,0.172 0.137,0.377 0.137,0.172 0.412,0.343 0.274,0.137 0.72,0.172 h 11.2 q 2.16,0.0332 3.57,0.857 1.41,0.789 1.99,1.89 0.617,1.06 0.617,2.16 0,1.06 -0.617,2.16 -0.617,1.06 -2.02,1.89 -1.37,0.789 -3.53,0.789 -0.377,0.0332 -0.549,0.0332 h -13.3 q -0.96,0 -1.65,-0.548 -0.652,-0.583 -0.652,-1.41 0,-0.857 0.686,-1.44 0.652,-0.548 1.61,-0.548 h 14.1 q 0.514,0.0332 0.823,-0.137 0.343,-0.172 0.514,-0.377 0.171,-0.206 0.171,-0.411 0,-0.103 -0.171,-0.343 -0.171,-0.275 -0.514,-0.412 -0.309,-0.172 -0.823,-0.206 h -11.2 q -1.99,-0.0332 -3.29,-0.823 -1.3,-0.823 -1.85,-1.89 -0.549,-1.06 -0.549,-2.13 0,-1.06 0.549,-2.09 0.583,-1.06 1.85,-1.82 1.3,-0.789 3.29,-0.857 0.343,-0.0332 0.514,-0.0332 h 13.8 q 0.96,0 1.61,0.583 0.686,0.548 0.686,1.37 z" />
    <path
       id="path16"
       style="font-variant-ligatures:normal;font-variant-caps:normal;font-variant-numeric:normal;font-feature-settings:normal"
       d="m 199,29 q -1.78,0 -3.53,-0.412 -1.71,-0.411 -3.29,-1.2 -1.58,-0.823 -2.78,-2.16 -1.2,-1.34 -1.3,-3.19 v -7.31 q 0,-0.96 0.686,-1.58 0.72,-0.652 1.68,-0.652 2.06,0.172 2.23,2.23 v 6.24 q 0.0689,1.06 0.789,1.78 0.755,0.686 1.65,1.1 0.926,0.412 1.89,0.617 0.995,0.206 1.99,0.206 0.995,0 1.95,-0.206 0.995,-0.206 1.89,-0.617 0.926,-0.412 1.65,-1.1 0.755,-0.72 0.823,-1.78 v -6.24 q 0,-0.96 0.686,-1.58 0.72,-0.652 1.68,-0.652 2.06,0.172 2.26,2.23 v 7.31 q -0.103,1.85 -1.34,3.19 -1.2,1.34 -2.78,2.16 -1.58,0.789 -3.33,1.2 -1.71,0.412 -3.5,0.412 z" />
    <path
       id="path18"
       style="font-variant-ligatures:normal;font-variant-caps:normal;font-variant-numeric:normal;font-feature-settings:normal"
       d="m 217,12 q 0.96,0 1.65,0.652 0.686,0.617 0.72,1.58 v 3.46 q -0.034,1.41 0.171,2.61 0.24,1.17 1.1,2.09 0.857,0.926 2.16,0.995 h 9.16 v -9.09 q 0,-0.96 0.686,-1.58 0.72,-0.652 1.68,-0.652 2.06,0.172 2.26,2.23 v 11.2 q 0,2.74 -0.755,5.18 -0.686,2.16 -2.26,3.64 -1.54,1.51 -3.94,1.65 h -11.9 q -0.926,-0.0332 -1.58,-0.686 -0.617,-0.617 -0.652,-1.54 0,-0.96 0.617,-1.65 0.652,-0.686 1.61,-0.72 h 10.7 q 1.3,-0.0664 2.16,-0.995 0.857,-0.926 1.1,-2.16 0.034,-0.103 0.034,-0.206 h -10.1 q -2.4,-0.137 -3.98,-1.61 -1.54,-1.51 -2.23,-3.67 -0.652,-2.16 -0.686,-4.6 v -3.88 q 0.034,-0.926 0.686,-1.54 0.652,-0.652 1.58,-0.686 z" />
    <path
       id="path20"
       style="font-variant-ligatures:normal;font-variant-caps:normal;font-variant-numeric:normal;font-feature-settings:normal"
       d="m 260,26 v -8.27 q 0,-0.858 -0.892,-0.892 h -12 q -0.652,0.0332 -1.13,0.583 -0.48,0.514 -0.72,1.23 -0.206,0.686 -0.206,1.41 0,0.686 0.206,1.41 0.24,0.686 0.72,1.23 0.48,0.514 1.13,0.514 h 8.78 q 0.96,0 1.61,0.686 0.686,0.652 0.686,1.61 0,0.96 -0.686,1.61 -0.652,0.686 -1.61,0.686 h -8.64 q -2.4,-0.0332 -3.98,-1.34 -1.54,-1.34 -2.23,-2.98 -0.652,-1.68 -0.652,-3.46 0,-1.71 0.686,-3.36 0.686,-1.68 2.23,-2.98 1.54,-1.34 4.56,-1.44 h 14.4 q 0.96,0 1.65,0.652 0.686,0.617 0.72,1.58 v 11.5 q 0,0.96 -0.72,1.61 -0.686,0.617 -1.65,0.617 -2.06,-0.172 -2.26,-2.23 z" />
    <path
       id="path22"
       style="font-variant-ligatures:normal;font-variant-caps:normal;font-variant-numeric:normal;font-feature-settings:normal"
       d="m 98.2,58 q 0,-0.96 0.651,-1.61 0.686,-0.686 1.65,-0.686 h 6.59 v -11 h -6.59 q -0.96,0 -1.61,-0.686 -0.686,-0.652 -0.686,-1.61 0,-0.96 0.651,-1.61 0.686,-0.686 1.65,-0.686 h 17.8 q 0.96,0 1.65,0.652 0.651,0.686 0.651,1.65 0,0.96 -0.686,1.65 -0.652,0.651 -1.61,0.651 h -6.55 v 11 h 6.55 q 0.96,0 1.65,0.652 0.651,0.686 0.651,1.65 0,0.96 -0.686,1.65 -0.652,0.651 -1.61,0.651 h -17.8 q -0.96,0 -1.61,-0.686 -0.686,-0.652 -0.686,-1.61 z" />
    <path
       id="path24"
       style="font-variant-ligatures:normal;font-variant-caps:normal;font-variant-numeric:normal;font-feature-settings:normal"
       d="m 146,47 q 0,0.857 -0.686,1.44 -0.651,0.549 -1.61,0.549 h -14.5 q -0.446,0 -0.72,0.172 -0.275,0.172 -0.412,0.377 -0.137,0.172 -0.137,0.309 0,0.172 0.137,0.377 0.137,0.172 0.412,0.343 0.275,0.137 0.72,0.172 h 11.2 q 2.16,0.0332 3.57,0.857 1.41,0.789 1.99,1.89 0.617,1.06 0.617,2.16 0,1.06 -0.617,2.16 -0.617,1.06 -2.02,1.89 -1.37,0.789 -3.53,0.789 -0.377,0.0332 -0.548,0.0332 h -13.3 q -0.96,0 -1.65,-0.548 -0.651,-0.583 -0.651,-1.41 0,-0.857 0.686,-1.44 0.651,-0.548 1.61,-0.548 h 14.1 q 0.514,0.0332 0.823,-0.137 0.343,-0.172 0.514,-0.377 0.172,-0.206 0.172,-0.412 0,-0.103 -0.172,-0.343 -0.172,-0.275 -0.514,-0.412 -0.309,-0.172 -0.823,-0.206 h -11.2 q -1.99,-0.0332 -3.29,-0.823 -1.3,-0.823 -1.85,-1.89 -0.548,-1.06 -0.548,-2.13 0,-1.06 0.548,-2.09 0.583,-1.06 1.85,-1.82 1.3,-0.789 3.29,-0.857 0.343,-0.0332 0.514,-0.0332 h 13.8 q 0.96,0 1.61,0.583 0.686,0.548 0.686,1.37 z" />
    <path
       id="path26"
       style="font-variant-ligatures:normal;font-variant-caps:normal;font-variant-numeric:normal;font-feature-settings:normal"
       d="m 153,40 q 0.926,0.0332 1.58,0.686 0.651,0.617 0.686,1.54 v 2.98 h 10.6 q 2.4,0.0332 3.94,1.37 1.58,1.3 2.23,2.95 0.686,1.68 0.686,3.46 h 0.0332 v 5.97 q 0,0.96 -0.72,1.61 -0.686,0.617 -1.65,0.617 -2.06,-0.172 -2.26,-2.23 v -6 q 0,-0.652 -0.275,-1.37 -0.24,-0.72 -0.72,-1.23 -0.48,-0.548 -1.13,-0.548 h -10.8 v 9.23 q -0.206,2.06 -2.26,2.23 -0.96,0 -1.68,-0.617 -0.686,-0.651 -0.686,-1.61 v -16.8 q 0.0332,-0.96 0.72,-1.58 0.686,-0.652 1.65,-0.652 z" />
    <path
       id="path28"
       style="font-variant-ligatures:normal;font-variant-caps:normal;font-variant-numeric:normal;font-feature-settings:normal"
       d="m 179,45 q 0.926,0.0332 1.58,0.686 0.651,0.617 0.686,1.54 v 11.9 q -0.206,2.06 -2.26,2.23 -0.96,0 -1.68,-0.617 -0.686,-0.652 -0.686,-1.61 v -11.9 q 0.0332,-0.96 0.72,-1.58 0.686,-0.652 1.65,-0.652 z m -2.88,-4.46 q 0,-0.96 0.823,-1.65 0.823,-0.686 1.99,-0.686 1.17,0 1.99,0.686 0.823,0.686 0.823,1.65 0,0.995 -0.823,1.68 -0.823,0.686 -1.99,0.686 -1.17,0 -1.99,-0.686 -0.823,-0.686 -0.823,-1.68 z" />
    <path
       id="path30"
       style="font-variant-ligatures:normal;font-variant-caps:normal;font-variant-numeric:normal;font-feature-settings:normal"
       d="m 188,40 q 0.926,0.0332 1.58,0.686 0.651,0.617 0.686,1.54 v 16.8 q -0.206,2.06 -2.26,2.23 -0.96,0 -1.68,-0.617 -0.686,-0.651 -0.686,-1.61 v -16.8 q 0.0332,-0.96 0.72,-1.58 0.686,-0.652 1.65,-0.652 z m 4.36,9.57 q 0.995,-1.61 3.81,-2.37 l 8.81,-2.37 q 0.926,-0.275 1.75,0.172 0.858,0.411 1.13,1.34 0.309,0.892 -0.137,1.75 -0.412,0.823 -1.34,1.13 l -9.4,2.44 q -0.995,0.377 -0.96,1.3 -0.0332,0.926 0.96,1.3 l 9.4,2.44 q 0.926,0.309 1.34,1.17 0.446,0.823 0.137,1.71 -0.275,0.926 -1.13,1.34 -0.823,0.446 -1.75,0.172 l -8.81,-2.37 q -2.85,-0.789 -3.84,-2.4 -0.96,-1.61 -0.96,-3.36 0,-1.75 0.995,-3.4 z" />
    <path
       id="path32"
       style="font-variant-ligatures:normal;font-variant-caps:normal;font-variant-numeric:normal;font-feature-settings:normal"
       d="m 231,59 v -8.27 q 0,-0.857 -0.892,-0.892 h -12 q -0.652,0.0332 -1.13,0.583 -0.48,0.514 -0.72,1.23 -0.206,0.686 -0.206,1.41 0,0.686 0.206,1.41 0.24,0.686 0.72,1.23 0.48,0.514 1.13,0.514 h 8.78 q 0.96,0 1.61,0.686 0.686,0.651 0.686,1.61 0,0.96 -0.686,1.61 -0.651,0.686 -1.61,0.686 h -8.64 q -2.4,-0.0332 -3.98,-1.34 -1.54,-1.34 -2.23,-2.98 -0.651,-1.68 -0.651,-3.46 0,-1.71 0.686,-3.36 0.686,-1.68 2.23,-2.98 1.54,-1.34 4.56,-1.44 h 14.4 q 0.96,0 1.65,0.652 0.686,0.617 0.72,1.58 v 11.5 q 0,0.96 -0.72,1.61 -0.686,0.617 -1.65,0.617 -2.06,-0.172 -2.26,-2.23 z" />
    <path
       id="path34"
       style="font-variant-ligatures:normal;font-variant-caps:normal;font-variant-numeric:normal;font-feature-settings:normal"
       d="m 247,61 q -1.17,0 -2.33,-0.412 -1.13,-0.412 -2.2,-1.2 -1.06,-0.823 -1.85,-2.16 -0.789,-1.34 -0.857,-3.19 v -7.31 q 0,-0.96 0.686,-1.58 0.72,-0.651 1.68,-0.651 2.06,0.172 2.23,2.23 v 7.03 q 0.0332,0.823 0.343,1.41 0.309,0.548 0.686,0.892 0.377,0.309 0.755,0.48 0.412,0.137 0.823,0.137 0.411,0 0.823,-0.137 0.411,-0.172 0.789,-0.48 0.377,-0.343 0.686,-0.892 0.309,-0.583 0.309,-1.41 v -7.03 q 0,-0.96 0.686,-1.58 0.72,-0.651 1.68,-0.651 2.06,0.172 2.26,2.23 v 7.03 q 0.0332,0.823 0.343,1.37 0.309,0.583 0.686,0.926 0.377,0.309 0.754,0.48 0.411,0.137 0.823,0.137 0.411,0 0.823,-0.137 0.412,-0.172 0.789,-0.48 0.377,-0.343 0.686,-0.892 0.309,-0.583 0.309,-1.41 v -7.03 q 0,-0.96 0.686,-1.58 0.72,-0.651 1.68,-0.651 2.06,0.172 2.26,2.23 v 7.31 q 0,1.85 -0.823,3.19 -0.789,1.34 -1.85,2.16 -1.03,0.789 -2.2,1.2 -1.13,0.411 -2.33,0.411 -1.17,0 -2.33,-0.411 -1.13,-0.412 -2.2,-1.23 -0.206,-0.137 -0.377,-0.309 -0.206,0.172 -0.377,0.309 -1.06,0.823 -2.23,1.23 -1.13,0.411 -2.33,0.411 z" />
    <path
       id="path36"
       style="font-variant-ligatures:normal;font-variant-caps:normal;font-variant-numeric:normal;font-feature-settings:normal"
       d="m 288,59 v -8.27 q 0,-0.857 -0.892,-0.892 h -12 q -0.651,0.0332 -1.13,0.583 -0.48,0.514 -0.72,1.23 -0.206,0.686 -0.206,1.41 0,0.686 0.206,1.41 0.24,0.686 0.72,1.23 0.48,0.514 1.13,0.514 h 8.78 q 0.96,0 1.61,0.686 0.686,0.651 0.686,1.61 0,0.96 -0.686,1.61 -0.651,0.686 -1.61,0.686 h -8.64 q -2.4,-0.0332 -3.98,-1.34 -1.54,-1.34 -2.23,-2.98 -0.651,-1.68 -0.651,-3.46 0,-1.71 0.686,-3.36 0.686,-1.68 2.23,-2.98 1.54,-1.34 4.56,-1.44 h 14.4 q 0.96,0 1.65,0.652 0.686,0.617 0.72,1.58 v 11.5 q 0,0.96 -0.72,1.61 -0.686,0.617 -1.65,0.617 -2.06,-0.172 -2.26,-2.23 z" />
  </g>
</svg>
